<svg xmlns="http://www.w3.org/2000/svg" width="472" height="473.333" version="1.0" viewBox="0 0 354 355"><path d="M148.5 2c-27.1 4.8-48.7 13.3-69.7 27.4C40.2 55.1 15.1 91 3.4 137 .8 146.9.6 149.2.3 175c-.5 26.9-.4 27.8 2.2 39.5 5.2 23.6 13.5 43.3 26 62 26.7 39.9 67.6 67.3 114.2 76.5 10.3 2 13.4 2.1 38 1.8 26.1-.5 27.1-.6 38.9-3.6 65.2-16.8 113.8-65.4 130.6-130.6 3-11.8 3.1-12.8 3.6-38.9.3-24.6.2-27.7-1.8-38-9.2-46.3-36.5-87.4-75.9-113.8-22.4-15.1-46.3-24.3-73.9-28.4-13.7-2.1-40.9-1.8-53.7.5M299 145.2v42.3L284.5 173 270 158.5l-38.8 38.8C209.9 218.6 192 236 191.5 236c-.6 0-9.2-8.2-19.2-18.3-10-10-20.5-20.4-23.3-23.2l-5-4.9-36 35.9-36 36-13.3-13.3L45.5 235 95 185.5l49.5-49.5 23.7 23.7 23.8 23.8 25.7-25.7 25.8-25.8-14.5-14.5-14.5-14.5H299z"/></svg>